<?xml version="1.0" standalone="no"?>
<!DOCTYPE svg PUBLIC "-//W3C//DTD SVG 20010904//EN"
 "http://www.w3.org/TR/2001/REC-SVG-20010904/DTD/svg10.dtd">
<svg version="1.0" xmlns="http://www.w3.org/2000/svg"
 width="512.000000pt" height="512.000000pt" viewBox="0 0 512.000000 512.000000"
 preserveAspectRatio="xMidYMid meet">
<metadata>
Created by potrace 1.14, written by Peter Selinger 2001-2017
</metadata>
<g transform="translate(0.000000,512.000000) scale(0.100000,-0.100000)"
fill="#000000" stroke="none">
<path d="M2455 4931 c-3 -5 -2 -12 3 -15 5 -3 9 1 9 9 0 17 -3 19 -12 6z"/>
<path d="M2260 4900 c-9 -6 -10 -10 -3 -10 6 0 15 5 18 10 8 12 4 12 -15 0z"/>
<path d="M2295 4901 c-3 -5 -2 -12 3 -15 5 -3 9 1 9 9 0 17 -3 19 -12 6z"/>
<path d="M2396 4895 c-3 -9 -10 -13 -16 -10 -5 3 -10 1 -10 -4 0 -6 4 -11 9
-11 12 0 35 29 29 36 -3 3 -8 -2 -12 -11z"/>
<path d="M2634 4893 c3 -20 21 -28 31 -14 4 7 0 8 -11 4 -11 -4 -15 -3 -10 5
3 6 2 13 -3 16 -5 4 -8 -2 -7 -11z"/>
<path d="M2774 4885 c0 -16 4 -21 15 -17 10 4 11 7 3 10 -7 2 -10 8 -7 12 3 5
2 11 -3 14 -4 2 -8 -6 -8 -19z"/>
<path d="M2459 4888 c7 -10 17 -16 21 -13 4 3 10 -2 13 -10 5 -11 -4 -14 -48
-11 -32 2 -55 -1 -55 -6 0 -6 -7 -5 -15 2 -10 9 -15 9 -15 1 0 -15 -39 -8 -52
10 -8 11 -9 11 -4 -3 3 -10 1 -20 -4 -23 -6 -4 -10 -1 -10 6 0 8 -4 9 -13 0
-10 -8 -17 -7 -27 2 -10 9 -11 9 -6 0 4 -7 2 -13 -3 -13 -6 0 -11 8 -12 18 0
12 -3 11 -10 -7 -7 -18 -14 -22 -34 -17 -16 4 -25 2 -25 -6 0 -6 -7 -3 -16 8
-13 16 -15 16 -10 2 6 -21 -14 -24 -33 -5 -12 10 -13 8 -7 -8 4 -11 4 -16 0
-12 -4 4 -14 1 -21 -5 -12 -10 -14 -8 -11 6 2 12 -4 20 -14 21 -10 2 -18 -1
-18 -6 0 -5 5 -9 11 -9 5 0 7 -4 4 -10 -10 -15 -23 -12 -28 8 -3 12 -5 11 -6
-6 -1 -13 -5 -20 -11 -17 -6 4 -17 1 -25 -5 -18 -15 -20 1 -3 18 9 9 9 12 -1
12 -7 0 -9 5 -5 12 4 7 3 8 -4 4 -6 -4 -8 -14 -5 -23 4 -11 3 -14 -5 -9 -8 4
-10 2 -6 -8 6 -15 -28 -40 -39 -29 -4 3 -12 1 -19 -4 -16 -13 -49 -8 -59 9 -5
7 -9 8 -9 3 0 -6 5 -16 12 -23 12 -12 0 -16 -39 -15 -7 1 -13 -3 -13 -9 0 -5
-5 -6 -10 -3 -6 4 -8 10 -6 14 3 3 -4 7 -15 7 -18 0 -18 -2 -5 -12 20 -14 21
-25 1 -18 -9 4 -18 -1 -21 -11 -5 -13 -9 -14 -15 -3 -7 10 -9 10 -9 0 0 -8 -9
-11 -25 -8 -13 3 -28 0 -31 -6 -4 -6 -2 -8 4 -4 6 3 14 1 18 -5 4 -7 3 -9 -2
-6 -5 3 -31 -5 -58 -19 -26 -13 -52 -22 -57 -18 -5 3 -9 0 -9 -6 0 -6 -4 -9
-10 -5 -5 3 -7 13 -4 23 5 14 4 14 -4 3 -6 -8 -8 -19 -6 -26 3 -6 -2 -17 -9
-24 -12 -9 -18 -8 -30 4 -19 18 -34 20 -19 2 15 -17 2 -34 -31 -42 -16 -4 -31
-14 -34 -21 -3 -8 -8 -12 -13 -9 -4 2 -16 -3 -26 -13 -11 -9 -25 -18 -31 -19
-6 -1 -23 -13 -37 -27 -15 -13 -40 -29 -56 -36 -16 -7 -27 -17 -24 -24 3 -6
-1 -3 -9 7 -8 9 -18 17 -23 17 -4 0 -3 -5 4 -12 15 -15 16 -28 2 -28 -6 0 -32
-20 -58 -45 -26 -25 -55 -48 -64 -51 -10 -3 -18 -10 -18 -15 0 -5 -5 -9 -11
-9 -5 0 -7 5 -3 12 5 7 3 8 -6 3 -9 -6 -12 -4 -8 7 4 8 0 15 -7 15 -10 0 -11
-5 -4 -19 5 -10 7 -23 4 -28 -3 -6 2 -7 12 -4 15 5 15 4 3 -4 -8 -6 -18 -8
-22 -6 -4 3 -8 -2 -8 -11 0 -9 -5 -13 -10 -10 -6 4 -8 10 -6 14 3 4 -1 8 -9 8
-11 0 -12 -4 -4 -13 8 -10 6 -20 -8 -38 -18 -26 -43 -35 -43 -16 0 6 -5 10
-12 10 -6 0 -4 -7 5 -18 18 -20 13 -34 -9 -25 -8 3 -11 10 -7 16 4 6 1 7 -6 2
-9 -5 -10 -10 -2 -18 16 -16 14 -27 -5 -27 -9 0 -12 -5 -8 -12 5 -7 2 -9 -9
-5 -12 4 -14 2 -10 -10 4 -11 2 -14 -5 -9 -7 4 -12 2 -12 -5 0 -7 -12 -27 -26
-46 -18 -24 -31 -32 -44 -28 -13 4 -20 0 -25 -15 -3 -11 -11 -20 -17 -20 -6 0
-8 -3 -4 -7 4 -4 15 3 25 16 12 16 21 20 25 12 4 -6 2 -11 -3 -11 -6 0 -11 -7
-11 -15 0 -8 -7 -15 -16 -15 -9 0 -14 -6 -11 -14 3 -7 -3 -20 -14 -29 -10 -9
-19 -13 -20 -9 0 4 -5 -4 -11 -18 -6 -14 -10 -28 -10 -32 1 -4 -4 -5 -12 -2
-7 3 -19 -3 -27 -13 -13 -16 -12 -17 4 -4 9 7 17 9 17 4 0 -16 -22 -32 -39
-26 -13 4 -13 2 2 -7 16 -11 16 -12 0 -34 -11 -14 -24 -21 -33 -18 -13 5 -13
3 -1 -11 15 -19 1 -23 -17 -5 -8 8 -12 8 -12 1 0 -6 7 -14 16 -17 12 -5 13 -8
2 -20 -7 -8 -15 -12 -18 -11 -4 2 -12 -6 -20 -18 -12 -20 -12 -21 3 -8 10 7
17 10 17 5 -1 -13 -22 -39 -45 -53 -14 -9 -15 -11 -3 -7 13 4 15 1 11 -12 -9
-23 -22 -31 -45 -27 -10 2 -18 0 -18 -6 0 -5 12 -7 28 -5 23 4 24 3 11 -7 -9
-7 -19 -29 -23 -49 -4 -21 -11 -38 -17 -38 -6 0 -5 8 1 21 7 11 9 23 7 26 -3
2 -8 -5 -12 -16 -3 -12 -10 -19 -15 -16 -5 3 -12 0 -16 -6 -4 -7 -3 -10 2 -7
5 3 15 0 22 -8 7 -8 8 -14 2 -14 -5 0 -9 -3 -9 -7 5 -29 -2 -45 -17 -39 -15 6
-15 4 -3 -11 13 -15 12 -16 -11 -10 -24 6 -24 5 -6 -8 16 -12 17 -15 4 -15
-20 0 -30 -24 -16 -38 7 -7 6 -17 -2 -31 -6 -12 -8 -25 -5 -30 3 -5 -3 -12
-12 -15 -10 -3 -24 -16 -32 -28 -14 -23 -14 -23 8 -4 27 24 39 15 13 -10 -21
-21 -37 -68 -19 -57 6 4 8 -2 4 -18 -4 -13 -7 -28 -7 -33 0 -5 -9 -1 -19 8
-14 13 -21 14 -27 5 -4 -7 -3 -10 4 -5 16 10 27 -15 11 -26 -10 -6 -6 -7 11
-2 21 6 23 4 13 -7 -11 -13 -15 -36 -28 -144 -3 -21 -12 -43 -20 -48 -8 -4
-15 -13 -15 -20 0 -7 4 -6 10 3 11 18 23 8 14 -13 -3 -9 -13 -14 -22 -11 -16
5 -16 5 -1 -8 15 -12 15 -16 3 -33 -13 -17 -13 -21 3 -32 9 -7 12 -13 6 -13
-6 0 -9 -34 -7 -92 2 -90 -7 -125 -29 -111 -5 3 -7 1 -3 -5 3 -5 0 -13 -6 -15
-9 -4 -10 -6 -1 -6 6 -1 15 4 18 9 3 6 11 10 17 10 6 0 5 -7 -3 -17 -10 -12
-10 -15 -1 -9 9 6 11 -7 9 -58 -3 -36 -1 -64 3 -61 12 7 5 -84 -7 -97 -10 -9
-13 -9 -13 0 0 7 -5 12 -11 12 -8 0 -8 -4 1 -15 6 -8 15 -14 18 -13 20 2 28
-4 29 -24 2 -22 1 -22 -13 -4 -8 11 -14 15 -14 9 0 -7 8 -19 17 -29 18 -17 20
-29 25 -109 2 -22 9 -46 16 -54 7 -7 10 -16 7 -19 -3 -4 -11 0 -16 8 -9 12
-10 12 -5 -2 3 -10 1 -18 -4 -18 -6 0 -10 -5 -10 -12 0 -9 3 -9 12 0 17 17 33
15 18 -3 -11 -13 -10 -14 3 -9 11 4 15 0 13 -13 -2 -10 2 -21 8 -25 8 -5 7 -8
-1 -8 -7 0 -13 -4 -13 -10 0 -5 6 -9 13 -7 7 1 11 -6 9 -17 -2 -10 2 -23 10
-27 10 -7 10 -9 1 -9 -7 0 -13 -5 -13 -11 0 -5 5 -7 12 -3 6 4 8 3 4 -4 -3 -6
2 -16 11 -22 16 -10 16 -11 1 -6 -12 3 -15 1 -11 -9 3 -8 10 -12 16 -8 6 3 7
1 3 -5 -4 -7 -1 -12 6 -12 10 0 9 -3 -2 -10 -9 -6 -17 -5 -21 1 -4 7 -8 5 -12
-4 -4 -12 0 -14 19 -11 15 3 23 1 20 -5 -3 -5 -1 -11 4 -13 6 -2 12 -10 13
-18 2 -8 6 -21 11 -29 6 -9 4 -18 -7 -26 -11 -7 -13 -16 -6 -26 7 -11 9 -11 9
4 0 9 5 17 11 17 6 0 8 -9 4 -21 -5 -15 -4 -19 4 -15 6 4 11 0 11 -8 0 -9 5
-16 12 -16 6 0 8 -3 5 -6 -3 -4 -2 -16 4 -28 8 -15 4 -13 -13 6 -18 22 -26 26
-38 17 -13 -9 -12 -10 3 -5 12 4 21 -2 29 -19 6 -13 20 -26 32 -28 20 -3 20
-4 -4 -16 -20 -9 -21 -11 -4 -8 18 4 49 -25 47 -43 -2 -8 31 -64 42 -72 6 -5
5 -8 -3 -8 -7 0 -17 10 -22 23 -8 20 -9 20 -9 2 -1 -12 11 -27 29 -37 17 -10
33 -25 37 -35 3 -10 15 -30 25 -45 11 -16 16 -28 12 -28 -4 0 1 -7 12 -16 10
-8 13 -13 7 -9 -9 4 -11 1 -7 -9 3 -9 10 -14 15 -11 4 3 13 -3 18 -14 9 -16 7
-20 -7 -24 -10 -3 -5 -5 12 -6 23 -1 27 -5 23 -20 -3 -13 0 -18 8 -15 7 3 16
0 21 -7 4 -7 3 -10 -3 -6 -6 4 -19 0 -29 -9 -18 -15 -18 -15 2 -5 25 12 49 -1
41 -23 -4 -9 -2 -16 3 -16 6 0 10 5 10 11 0 6 20 -13 45 -43 24 -29 45 -61 45
-70 0 -10 5 -18 11 -18 5 0 7 6 3 12 -5 8 -1 7 10 -2 17 -13 17 -14 -1 -21
-16 -7 -16 -8 4 -8 12 -1 27 -9 32 -19 6 -9 11 -13 11 -8 0 5 7 3 15 -4 8 -7
15 -20 14 -29 0 -11 -3 -9 -9 7 -11 26 -22 30 -13 5 11 -31 14 -34 28 -23 9 7
16 6 24 -3 6 -8 8 -17 4 -20 -3 -4 -1 -7 6 -7 7 0 9 -5 5 -11 -4 -8 1 -9 17
-4 19 6 21 5 12 -5 -17 -18 -4 -40 24 -40 18 0 24 -4 19 -15 -15 -38 -16 -48
-1 -22 18 31 24 34 24 9 -1 -50 13 -68 38 -52 17 10 17 11 -2 5 -16 -4 -21 0
-22 14 -2 19 -1 19 32 3 18 -9 28 -20 23 -23 -15 -10 0 -29 17 -22 23 8 45 -4
39 -21 -3 -8 -15 -18 -26 -22 -11 -3 -17 -8 -15 -11 3 -2 20 3 38 13 32 16 33
16 52 -7 11 -13 23 -24 28 -24 6 0 13 -4 17 -10 4 -5 14 -11 22 -13 8 -2 17
-8 18 -13 2 -5 10 -9 18 -9 8 0 14 -5 14 -10 0 -7 -6 -7 -19 0 -14 7 -22 7
-27 -2 -4 -6 -3 -8 3 -5 6 4 14 0 17 -9 5 -13 9 -14 21 -4 9 7 22 9 32 4 10
-4 22 -8 26 -8 4 -1 11 -7 16 -14 5 -8 12 -13 17 -13 5 0 17 -2 28 -5 15 -5
16 -8 5 -15 -23 -15 -39 -10 -32 9 3 9 3 14 -1 11 -4 -4 -8 -15 -10 -26 -3
-16 1 -18 29 -15 19 2 36 -1 40 -8 5 -9 1 -10 -15 -5 -17 5 -21 4 -15 -6 6 -9
2 -11 -14 -6 -17 4 -20 3 -12 -7 6 -7 8 -16 4 -19 -3 -4 1 -7 11 -7 10 0 14
-5 10 -12 -5 -8 2 -9 23 -5 18 3 38 1 47 -6 16 -12 15 -13 -4 -14 -13 -1 -18
3 -14 10 3 7 -2 3 -11 -8 -12 -16 -18 -17 -24 -7 -6 11 -10 10 -15 -3 -6 -15
2 -17 71 -12 68 4 75 3 58 -9 -10 -8 -14 -14 -9 -14 6 0 15 5 22 12 16 16 44
19 59 6 9 -7 13 -7 13 1 0 7 4 10 10 6 5 -3 7 -13 4 -23 -5 -16 -5 -16 6 1 6
9 17 17 24 17 20 0 28 -27 10 -34 -8 -3 -14 -10 -14 -16 0 -7 7 -5 15 4 16 15
44 11 57 -8 5 -7 8 -6 8 2 0 8 -9 16 -20 19 -11 3 -17 10 -13 16 3 6 1 7 -5 3
-7 -4 -12 -2 -12 3 0 16 19 13 36 -4 9 -8 20 -15 27 -15 6 0 3 6 -7 13 -16 12
-16 14 -2 14 9 0 16 -5 16 -10 0 -5 7 -6 16 -3 14 5 15 4 5 -8 -9 -11 -9 -16
0 -22 8 -4 9 -3 5 4 -8 13 -6 14 37 16 32 2 55 -18 36 -30 -7 -4 -9 -3 -5 4 4
6 -3 9 -19 8 -14 -2 -22 1 -18 7 3 6 1 7 -5 3 -17 -11 -15 -20 11 -35 20 -13
21 -13 8 2 -8 10 -9 17 -3 17 6 0 15 -7 20 -16 5 -9 15 -14 23 -12 8 3 20 -2
26 -11 11 -14 14 -14 22 -2 8 12 12 12 25 2 9 -8 16 -9 16 -4 0 5 11 9 25 9
16 0 24 -5 22 -14 -4 -27 22 -24 38 5 9 15 14 20 11 11 -3 -10 -1 -20 4 -23
16 -10 11 -25 -5 -19 -8 4 -15 1 -15 -7 0 -7 3 -9 7 -6 3 4 11 2 18 -3 15 -12
17 19 2 38 -6 8 -6 12 2 12 7 0 9 5 5 13 -6 9 -4 9 7 1 8 -6 22 -10 32 -9 9 2
17 -1 17 -5 0 -5 20 -8 44 -7 37 2 42 0 33 -12 -10 -12 -9 -13 8 -7 31 13 66
15 59 5 -3 -5 -10 -6 -16 -3 -6 4 -8 2 -5 -3 4 -7 -7 -10 -31 -9 -26 1 -37 -3
-38 -14 -1 -8 -2 -24 -3 -35 -1 -18 -3 -18 -16 5 -8 14 -17 32 -21 40 -8 16
-32 33 -51 36 -9 2 -9 -4 2 -19 11 -15 12 -24 3 -34 -8 -10 -7 -12 5 -7 17 6
18 -11 3 -35 -6 -10 -5 -12 3 -7 8 5 11 3 9 -6 -2 -7 1 -16 7 -18 5 -3 12 9
15 25 l6 30 11 -32 c15 -41 43 -44 43 -5 0 21 2 24 10 12 5 -8 10 -10 10 -4 0
6 -3 14 -7 18 -22 22 0 52 30 40 7 -2 23 5 35 16 12 11 22 17 22 13 0 -4 70
-8 155 -8 92 0 155 4 155 9 0 6 7 1 16 -10 8 -10 13 -14 10 -7 -9 16 12 27 28
14 9 -7 16 -7 24 1 9 9 12 9 12 0 0 -6 -7 -15 -16 -20 -15 -8 -15 -10 0 -15 9
-4 15 -2 13 5 -1 6 4 13 11 15 6 3 12 -3 13 -14 0 -11 3 -13 6 -5 3 7 -1 19
-7 28 -11 12 -10 13 5 8 13 -5 16 -4 10 5 -6 10 -3 11 13 2 25 -13 35 -14 28
-2 -3 4 6 7 19 5 14 -1 25 1 25 5 0 4 17 8 38 9 51 2 75 7 90 16 6 4 12 3 12
-3 0 -5 -3 -11 -7 -14 -5 -2 -2 -2 5 -1 7 2 15 -3 19 -11 5 -13 7 -13 20 2 12
15 14 15 10 2 -3 -9 -1 -21 5 -27 7 -7 1 -10 -23 -8 -47 4 -55 -5 -51 -58 l4
-45 44 2 c24 1 44 7 44 13 0 6 -15 10 -35 9 -24 -2 -35 2 -35 11 0 8 10 12 26
11 15 -1 29 3 31 10 3 7 -3 11 -15 8 -10 -2 -25 1 -33 6 -10 6 -2 9 25 9 22 0
36 3 33 7 -4 3 -2 12 5 20 6 8 7 13 2 12 -20 -3 -26 2 -16 14 8 10 6 16 -10
26 -11 7 -18 8 -14 3 3 -5 -1 -9 -8 -9 -8 0 -12 6 -9 13 5 14 29 14 51 0 8 -5
12 -3 10 6 -2 7 3 12 10 11 6 -2 12 3 12 10 1 6 7 -1 14 -18 12 -26 15 -27 21
-12 7 17 9 17 26 1 11 -10 19 -12 19 -6 0 7 -5 12 -11 12 -5 0 -7 5 -4 11 5 7
14 4 26 -7 11 -9 22 -14 26 -11 3 4 0 7 -7 7 -9 0 -7 7 6 22 12 14 14 18 4 13
-9 -5 -12 -4 -7 1 5 5 39 9 75 10 37 0 77 4 90 8 14 5 22 3 22 -4 0 -6 -4 -8
-10 -5 -6 4 -7 -1 -3 -11 5 -14 8 -13 18 6 9 17 14 19 18 9 3 -9 8 -10 14 -4
11 14 76 15 85 1 5 -7 8 -7 8 -1 0 9 26 15 78 18 6 0 12 7 12 14 0 8 -4 12 -9
9 -5 -3 -15 2 -22 11 -13 14 -11 16 13 11 15 -3 25 -1 22 3 -3 5 3 9 13 9 17
1 17 1 1 11 -10 5 -18 15 -18 20 0 6 6 7 13 3 6 -4 4 2 -6 13 -18 20 -18 22 0
31 10 6 14 14 10 18 -5 5 -12 2 -17 -6 -8 -13 -10 -12 -10 3 0 11 8 17 21 17
11 0 17 4 14 10 -3 6 1 7 10 4 10 -4 15 -2 13 6 -2 7 8 14 22 16 14 3 27 9 29
15 2 6 15 15 28 20 20 7 30 6 47 -8 17 -15 19 -15 8 -1 -11 14 -10 18 6 27 11
6 23 7 27 3 5 -4 5 -1 1 5 -4 7 -2 13 3 13 6 0 11 5 11 12 0 6 -9 3 -20 -7
-21 -19 -28 -12 -7 9 16 16 71 20 61 4 -4 -7 -3 -8 5 -4 15 10 4 26 -17 26
-12 0 -13 3 -4 12 9 9 17 7 34 -7 13 -11 17 -13 11 -5 -7 8 -13 21 -13 29 0
11 4 10 15 -5 14 -18 14 -18 8 3 -4 16 0 25 13 30 10 4 33 22 50 41 23 25 33
31 39 22 5 -9 4 -11 -3 -6 -18 11 -14 0 5 -15 11 -10 14 -10 9 -1 -4 7 -2 12
6 12 11 0 10 2 0 9 -11 6 -8 14 11 35 20 21 31 26 54 21 27 -5 27 -5 4 5 -24
10 -24 11 -5 29 23 22 40 16 22 -7 -12 -15 -11 -15 4 -4 9 8 15 23 13 35 -4
20 -3 21 9 5 7 -10 17 -18 21 -18 4 0 2 7 -5 16 -11 12 -10 18 5 32 13 13 19
14 22 5 6 -18 20 -16 20 1 0 8 -3 15 -6 14 -19 -2 -17 5 6 29 14 16 30 27 35
25 6 -2 8 5 4 14 -5 12 -2 15 10 10 11 -4 15 -2 11 8 -3 8 4 22 15 33 15 13
22 15 25 6 3 -7 10 -13 16 -13 6 0 4 7 -5 16 -17 17 -12 27 44 85 9 9 14 20
10 24 -3 3 4 8 16 12 12 3 22 10 22 15 0 5 -5 6 -12 2 -7 -4 -8 -3 -4 4 4 7
15 12 24 12 14 0 15 2 2 10 -12 8 -12 10 3 16 9 3 14 11 10 17 -3 6 -1 7 5 3
7 -4 12 -1 12 8 0 24 39 83 66 100 19 13 23 22 18 44 -5 26 -5 26 10 8 8 -10
13 -23 9 -29 -3 -6 -1 -7 5 -3 9 5 8 14 -2 34 -13 25 -13 29 8 47 12 11 16 16
9 11 -10 -7 -12 -4 -7 8 4 10 14 16 24 13 10 -2 17 2 17 10 0 8 -6 12 -14 9
-15 -6 -18 10 -3 19 6 3 10 15 10 26 0 13 4 18 12 13 8 -5 9 -2 5 10 -6 14 -3
17 9 12 13 -5 14 -3 6 7 -7 8 -7 18 -2 27 7 10 10 11 10 3 0 -7 5 -13 10 -13
7 0 7 6 0 19 -10 21 -4 51 11 51 13 0 11 -18 -3 -23 -10 -4 -10 -6 -1 -6 17
-1 27 19 15 31 -6 6 -7 19 -2 32 4 11 8 25 8 31 1 14 22 19 22 4 0 -7 3 -9 6
-6 4 4 1 13 -6 22 -9 10 -9 19 -2 28 10 12 12 17 12 38 0 5 4 8 9 4 5 -3 13 0
17 6 4 7 3 9 -4 5 -16 -10 -26 14 -12 27 10 9 11 9 5 -2 -6 -10 -4 -12 4 -7 9
6 9 11 -1 24 -11 13 -10 15 4 9 10 -3 20 -1 24 5 4 7 3 8 -4 4 -7 -4 -12 -2
-12 4 0 6 -5 8 -12 4 -9 -5 -8 -2 1 9 8 10 15 30 17 45 1 15 3 27 4 27 5 0 27
132 24 149 -1 9 1 16 6 16 4 0 6 14 5 30 -1 17 2 30 7 30 6 0 7 -8 4 -17 -6
-17 -5 -17 7 -1 8 10 17 15 20 11 4 -3 7 -1 7 6 0 8 -7 11 -15 7 -22 -8 -31
21 -18 55 7 18 8 29 2 29 -6 0 -7 5 -4 10 4 6 10 8 15 5 5 -3 12 0 16 6 4 7 3
9 -3 6 -6 -4 -16 -1 -22 7 -9 10 -8 16 4 26 9 7 15 8 15 2 0 -6 -6 -12 -12
-15 -7 -3 -3 -4 9 -4 17 1 20 4 12 19 -5 10 -14 18 -19 18 -13 0 -10 81 4 99
7 9 7 12 1 9 -15 -9 -12 32 3 59 9 16 9 24 0 29 -6 4 -8 3 -5 -2 3 -6 1 -16
-4 -24 -6 -11 -9 -5 -7 20 1 19 9 44 17 55 15 19 15 19 -3 5 -18 -14 -19 -13
-13 2 3 10 2 20 -2 22 -13 8 -10 56 3 56 7 0 7 3 1 8 -14 10 -19 46 -6 37 7
-3 8 0 5 9 -3 9 -11 13 -18 9 -6 -4 -4 2 4 12 9 11 10 16 3 11 -16 -9 -17 6
-1 22 6 6 13 22 14 34 2 13 0 17 -2 11 -3 -7 -13 -13 -22 -12 -11 0 -12 2 -4
6 6 2 12 9 12 14 0 6 -4 7 -10 4 -9 -6 -14 14 -11 42 1 7 -3 22 -9 34 -9 15
-8 24 2 37 7 9 8 13 2 9 -7 -4 -15 0 -18 9 -3 8 -2 13 3 9 5 -3 8 2 7 11 -1 8
-9 20 -17 24 -11 7 -11 12 -1 22 15 15 16 28 1 28 -5 0 -7 -4 -4 -10 3 -5 1
-10 -4 -10 -15 0 -14 13 2 29 10 10 8 11 -7 5 -16 -6 -17 -4 -8 12 5 10 10 21
10 24 2 20 16 39 26 33 6 -3 7 -2 3 2 -13 15 -34 13 -33 -2 0 -9 -5 -18 -12
-20 -8 -3 -10 1 -5 13 4 12 3 15 -5 10 -19 -11 -14 5 6 20 15 12 15 13 -6 9
-15 -3 -22 0 -19 8 3 7 10 11 16 9 7 -1 5 8 -5 23 -9 14 -20 23 -24 20 -4 -3
-10 5 -14 18 -9 35 -7 49 7 41 7 -5 7 -1 -3 12 -22 29 -24 30 -17 12 4 -10 2
-18 -3 -18 -6 0 -10 9 -10 19 0 11 -6 22 -12 25 -7 3 -3 3 10 0 13 -3 22 -1
22 6 0 6 -4 9 -8 6 -13 -8 -25 6 -49 52 -17 33 -18 42 -7 42 8 0 13 -5 12 -11
-2 -6 3 -13 10 -14 7 -2 8 -1 2 2 -5 2 -8 9 -4 14 3 5 -8 14 -26 20 -24 9 -28
14 -20 24 8 10 6 15 -11 20 -17 6 -19 9 -8 16 10 6 11 9 2 9 -7 0 -13 6 -13
14 0 8 -7 17 -16 20 -8 3 -12 10 -9 16 3 5 0 10 -7 10 -11 0 -10 2 0 9 11 7
11 9 -1 14 -8 3 -32 32 -54 65 -41 61 -43 92 -7 78 15 -6 16 -4 7 5 -6 6 -18
9 -25 7 -21 -8 -28 -9 -30 0 -1 4 -14 20 -29 37 -21 22 -25 32 -17 42 6 8 8
16 4 20 -3 3 -6 1 -6 -5 0 -7 -5 -12 -11 -12 -5 0 -8 4 -5 9 3 5 -2 15 -11 22
-14 12 -16 12 -9 -1 5 -8 -3 -2 -17 15 -14 16 -23 33 -20 37 2 5 -4 8 -14 8
-15 0 -16 2 -3 10 13 8 12 10 -4 10 -12 0 -16 5 -12 15 13 33 16 49 5 28 -7
-13 -16 -23 -21 -23 -11 0 -10 7 3 33 9 20 9 20 -4 5 -16 -20 -32 -25 -21 -6
5 8 2 9 -10 5 -9 -4 -15 -3 -12 1 6 11 -39 64 -48 55 -3 -3 -6 1 -6 10 0 9 -5
19 -12 23 -7 5 -8 3 -3 -7 5 -8 -4 -2 -20 14 -15 15 -32 27 -36 27 -5 0 -9 5
-9 12 0 6 8 4 19 -6 21 -19 71 -31 71 -17 0 6 -9 8 -19 6 -24 -4 -61 21 -62
43 0 10 -3 12 -6 5 -2 -7 -12 -13 -21 -12 -11 0 -12 2 -4 6 19 7 14 22 -6 16
-10 -2 -26 5 -37 17 -19 22 -19 22 0 36 10 8 14 14 8 14 -6 0 -16 -7 -23 -15
-9 -11 -16 -12 -30 -2 -11 6 -16 15 -11 22 5 5 4 19 0 30 -9 19 -9 19 -5 -2 3
-17 0 -20 -13 -15 -24 9 -41 28 -33 37 4 5 -1 5 -10 2 -10 -3 -24 0 -32 8 -8
8 -19 15 -25 15 -6 0 -11 10 -11 23 0 15 -3 18 -8 9 -7 -9 -15 -7 -34 11 -13
13 -30 21 -36 19 -7 -2 -10 3 -6 11 4 12 0 14 -15 10 -12 -3 -21 -1 -21 6 0 6
-9 11 -20 11 -11 0 -20 4 -20 9 0 5 -16 15 -34 22 -19 7 -32 17 -29 22 3 5 -3
6 -14 3 -13 -4 -26 1 -39 15 -18 20 -18 21 -1 34 17 12 16 13 -6 11 -18 -1
-23 -6 -20 -21 4 -18 3 -18 -9 -4 -7 9 -19 14 -27 11 -9 -3 -11 0 -6 8 6 10 4
12 -8 7 -18 -7 -67 13 -67 28 0 6 -5 3 -10 -5 -8 -13 -10 -13 -10 1 0 9 -8 23
-17 30 -16 13 -17 12 -5 -3 12 -16 11 -16 -15 -9 -15 5 -40 14 -55 20 -16 6
-28 8 -28 5 0 -4 -7 -1 -15 6 -8 7 -15 9 -15 5 0 -4 -6 -2 -13 4 -8 6 -17 7
-22 3 -4 -4 -4 4 -1 18 7 23 6 24 -8 7 -8 -11 -17 -14 -20 -8 -4 5 -16 8 -27
6 -15 -3 -19 0 -16 10 3 7 0 18 -7 24 -9 8 -13 7 -13 -4 0 -8 5 -11 10 -8 6 3
7 1 3 -5 -4 -7 -15 -8 -30 -2 -13 5 -27 6 -30 3 -3 -3 -12 0 -21 7 -8 7 -21
10 -29 7 -11 -4 -13 1 -10 19 4 22 2 23 -10 12 -7 -7 -11 -17 -8 -22 3 -5 -7
-5 -24 -1 -16 5 -39 9 -51 9 -13 1 -23 7 -23 14 0 6 -5 12 -11 12 -5 0 -8 -4
-4 -9 3 -6 -4 -9 -15 -8 -23 2 -26 15 -5 23 8 4 15 10 15 15 0 5 -9 4 -20 -3
-11 -7 -20 -18 -20 -25 0 -6 -8 -10 -17 -8 -10 2 -18 4 -18 5 0 3 -60 8 -108
9 -28 1 -36 4 -31 14 5 7 0 6 -11 -3 -21 -17 -22 -17 -42 7 -13 16 -14 17 -9
1 3 -10 1 -18 -4 -18 -5 0 -12 9 -15 20 -3 11 -11 20 -17 20 -6 0 -6 -6 2 -15
22 -26 2 -29 -20 -4 -17 20 -19 20 -11 4 8 -18 6 -21 -14 -23 -23 -2 -40 21
-29 40 4 6 -1 6 -13 -1 -14 -7 -24 -7 -33 2 -12 10 -12 9 -1 -5z m-2054 -1558
c-3 -5 -11 -10 -16 -10 -6 0 -7 5 -4 10 3 6 11 10 16 10 6 0 7 -4 4 -10z
m4340 -10 c3 -5 1 -10 -4 -10 -6 0 -11 5 -11 10 0 6 2 10 4 10 3 0 8 -4 11
-10z m-4398 -162 c-3 -8 -6 -5 -6 6 -1 11 2 17 5 13 3 -3 4 -12 1 -19z m4508
-258 c-3 -5 -11 -10 -16 -10 -6 0 -7 5 -4 10 3 6 11 10 16 10 6 0 7 -4 4 -10z
m-4575 -125 c0 -8 -4 -15 -10 -15 -5 0 -7 7 -4 15 4 8 8 15 10 15 2 0 4 -7 4
-15z m4310 -1334 c0 -5 -7 -12 -16 -15 -14 -5 -15 -4 -4 9 14 17 20 19 20 6z
m-3540 -613 c0 -4 -4 -8 -9 -8 -6 0 -12 4 -15 8 -3 5 1 9 9 9 8 0 15 -4 15 -9z
m2795 -197 c-3 -6 -11 -8 -17 -5 -6 4 -5 9 3 15 16 10 23 4 14 -10z m-188
-127 c-4 -4 -2 -13 4 -21 9 -9 8 -13 0 -13 -6 0 -14 6 -17 14 -3 8 -12 12 -19
10 -7 -3 -15 -1 -18 3 -3 5 8 10 26 11 17 2 28 0 24 -4z m-409 -163 c7 -1 10
-6 7 -11 -5 -8 -11 -8 -19 -1 -9 7 -16 7 -24 -1 -7 -7 -12 -8 -12 -4 0 5 -7 3
-16 -4 -12 -11 -15 -11 -12 1 3 16 26 28 48 23 8 -1 21 -3 28 -3z m-1245 -14
c4 3 7 1 7 -5 0 -6 9 -9 20 -7 13 2 20 -2 20 -11 0 -8 -4 -14 -10 -14 -5 0
-10 5 -10 12 0 6 -8 4 -19 -6 -16 -15 -19 -15 -24 -2 -4 10 -13 13 -23 9 -14
-5 -14 -3 -3 15 9 14 17 18 25 12 6 -6 14 -7 17 -3z m87 -25 c0 -5 -7 -9 -15
-9 -8 0 -12 4 -9 9 3 4 9 8 15 8 5 0 9 -4 9 -8z m25 -2 c-3 -5 -2 -10 4 -10 6
0 8 -7 5 -15 -9 -23 -21 -18 -18 8 3 27 3 27 10 27 3 0 2 -4 -1 -10z m95 -45
c7 -9 8 -15 2 -15 -5 0 -12 7 -16 15 -3 8 -4 15 -2 15 2 0 9 -7 16 -15z"/>
<path d="M1987 309 c7 -7 15 -10 18 -7 3 3 -2 9 -12 12 -14 6 -15 5 -6 -5z"/>
<path d="M3002 4884 c10 -10 20 -16 22 -13 3 3 -5 11 -17 18 -21 13 -21 12 -5
-5z"/>
<path d="M2430 4886 c0 -2 8 -10 18 -17 15 -13 16 -12 3 4 -13 16 -21 21 -21
13z"/>
<path d="M2687 4873 c3 -7 8 -13 12 -13 4 0 8 6 8 13 0 8 -6 14 -13 14 -7 0
-10 -6 -7 -14z"/>
<path d="M2741 4868 c5 -10 11 -18 12 -18 2 0 3 8 3 18 0 10 -6 19 -13 19 -8
0 -9 -6 -2 -19z"/>
<path d="M2836 4882 c-3 -5 1 -9 9 -9 8 0 12 4 9 9 -3 4 -7 8 -9 8 -2 0 -6 -4
-9 -8z"/>
<path d="M2917 4875 c-4 -8 -3 -16 1 -19 4 -3 9 4 9 15 2 23 -3 25 -10 4z"/>
<path d="M2255 4871 c-3 -5 0 -13 6 -17 8 -5 9 -3 4 6 -6 10 -4 12 9 7 10 -4
15 -3 11 3 -8 13 -22 13 -30 1z"/>
<path d="M2079 4868 c-5 -18 -6 -38 -1 -34 7 8 12 36 6 36 -2 0 -4 -1 -5 -2z"/>
<path d="M2195 4860 c3 -5 8 -10 11 -10 2 0 4 5 4 10 0 6 -5 10 -11 10 -5 0
-7 -4 -4 -10z"/>
<path d="M2320 4866 c0 -2 7 -7 16 -10 8 -3 12 -2 9 4 -6 10 -25 14 -25 6z"/>
<path d="M2810 4861 c0 -5 5 -13 10 -16 6 -3 10 -2 10 4 0 5 -4 13 -10 16 -5
3 -10 2 -10 -4z"/>
<path d="M2943 4850 c2 -8 10 -15 17 -15 7 0 15 7 17 15 4 13 3 13 -6 0 -10
-13 -12 -13 -22 0 -9 13 -10 13 -6 0z"/>
<path d="M3055 4851 c-3 -5 -2 -12 3 -15 5 -3 9 1 9 9 0 17 -3 19 -12 6z"/>
<path d="M2175 4840 c3 -5 8 -10 11 -10 2 0 4 5 4 10 0 6 -5 10 -11 10 -5 0
-7 -4 -4 -10z"/>
<path d="M3067 4809 c7 -7 15 -10 18 -7 3 3 -2 9 -12 12 -14 6 -15 5 -6 -5z"/>
<path d="M3190 4796 c7 -7 13 -7 20 0 6 6 3 10 -10 10 -13 0 -16 -4 -10 -10z"/>
<path d="M1795 4781 c-3 -5 -2 -12 3 -15 5 -3 9 1 9 9 0 17 -3 19 -12 6z"/>
<path d="M1867 4779 c7 -9 9 -20 5 -25 -4 -5 3 0 16 10 13 12 22 14 22 7 0 -7
5 -9 10 -6 6 3 10 10 10 15 0 9 -26 7 -36 -3 -4 -4 -14 -1 -23 6 -14 10 -14
10 -4 -4z"/>
<path d="M3280 4775 c-13 -16 -8 -28 14 -31 7 -1 13 4 13 12 0 10 -4 11 -14 3
-9 -8 -13 -8 -13 -1 0 6 8 16 18 21 9 6 12 11 6 11 -6 0 -17 -7 -24 -15z"/>
<path d="M1756 4762 c-3 -5 1 -9 9 -9 8 0 12 4 9 9 -3 4 -7 8 -9 8 -2 0 -6 -4
-9 -8z"/>
<path d="M1790 4740 c0 -5 5 -10 10 -10 6 0 10 5 10 10 0 6 -4 10 -10 10 -5 0
-10 -4 -10 -10z"/>
<path d="M3344 4738 c4 -19 23 -20 30 -2 5 14 4 15 -8 5 -10 -8 -16 -9 -19 -1
-3 6 -4 5 -3 -2z"/>
<path d="M3395 4740 c3 -5 8 -10 11 -10 2 0 4 5 4 10 0 6 -5 10 -11 10 -5 0
-7 -4 -4 -10z"/>
<path d="M1661 4714 c0 -11 3 -14 6 -6 3 7 2 16 -1 19 -3 4 -6 -2 -5 -13z"/>
<path d="M1705 4720 c-3 -5 -1 -10 4 -10 6 0 11 5 11 10 0 6 -2 10 -4 10 -3 0
-8 -4 -11 -10z"/>
<path d="M3425 4720 c-3 -5 -1 -10 4 -10 6 0 11 5 11 10 0 6 -2 10 -4 10 -3 0
-8 -4 -11 -10z"/>
<path d="M3466 4695 c-3 -8 0 -17 6 -21 6 -4 8 -3 4 4 -3 5 -1 12 6 14 8 3 9
6 1 11 -6 4 -13 0 -17 -8z"/>
<path d="M1597 4683 c-12 -11 -8 -23 7 -23 8 0 18 4 21 10 4 6 -1 7 -11 3 -12
-4 -15 -3 -10 5 8 13 3 16 -7 5z"/>
<path d="M3500 4686 c0 -2 7 -6 15 -10 8 -3 15 -1 15 4 0 6 -7 10 -15 10 -8 0
-15 -2 -15 -4z"/>
<path d="M1550 4666 c0 -3 9 -10 20 -16 11 -6 20 -8 20 -6 0 3 -9 10 -20 16
-11 6 -20 8 -20 6z"/>
<path d="M3616 4662 c-2 -4 4 -19 15 -32 14 -18 17 -20 12 -6 -5 15 -3 17 8
11 8 -5 11 -5 6 1 -5 5 -14 9 -20 9 -7 1 -11 6 -9 13 2 14 -4 16 -12 4z"/>
<path d="M1435 4640 c-3 -5 -1 -10 4 -10 6 0 11 5 11 10 0 6 -2 10 -4 10 -3 0
-8 -4 -11 -10z"/>
<path d="M3580 4645 c0 -5 5 -17 10 -25 8 -13 11 -13 22 -1 8 9 9 12 1 7 -6
-3 -16 2 -22 11 -6 10 -10 14 -11 8z"/>
<path d="M1477 4629 c7 -7 15 -10 18 -7 3 3 -2 9 -12 12 -14 6 -15 5 -6 -5z"/>
<path d="M3656 4603 c-6 -14 -5 -15 5 -6 7 7 10 15 7 18 -3 3 -9 -2 -12 -12z"/>
<path d="M1373 4595 c0 -8 4 -12 9 -9 5 3 6 10 3 15 -9 13 -12 11 -12 -6z"/>
<path d="M1490 4599 c0 -5 5 -7 10 -4 6 3 10 8 10 11 0 2 -4 4 -10 4 -5 0 -10
-5 -10 -11z"/>
<path d="M3691 4594 c0 -11 3 -14 6 -6 3 7 2 16 -1 19 -3 4 -6 -2 -5 -13z"/>
<path d="M3715 4600 c-3 -5 -1 -10 4 -10 6 0 11 5 11 10 0 6 -2 10 -4 10 -3 0
-8 -4 -11 -10z"/>
<path d="M1417 4594 c-4 -4 -4 -11 -1 -15 7 -12 34 -11 34 1 0 5 -7 6 -17 3
-11 -4 -14 -3 -9 5 8 13 3 16 -7 6z"/>
<path d="M3734 4566 c1 -8 5 -18 8 -22 4 -3 5 1 4 10 -1 8 -5 18 -8 22 -4 3
-5 -1 -4 -10z"/>
<path d="M1390 4559 c0 -5 5 -7 10 -4 6 3 10 8 10 11 0 2 -4 4 -10 4 -5 0 -10
-5 -10 -11z"/>
<path d="M1316 4531 c-4 -5 -2 -12 3 -15 5 -4 12 -2 15 3 4 5 2 12 -3 15 -5 4
-12 2 -15 -3z"/>
<path d="M3800 4534 c0 -5 6 -18 13 -29 12 -15 15 -16 22 -4 5 8 4 10 0 6 -5
-4 -15 3 -22 15 -7 13 -12 18 -13 12z"/>
<path d="M1270 4500 c0 -5 5 -10 10 -10 6 0 10 5 10 10 0 6 -4 10 -10 10 -5 0
-10 -4 -10 -10z"/>
<path d="M3856 4498 c3 -5 10 -6 15 -3 13 9 11 12 -6 12 -8 0 -12 -4 -9 -9z"/>
<path d="M1210 4480 c0 -5 5 -10 10 -10 6 0 10 5 10 10 0 6 -4 10 -10 10 -5 0
-10 -4 -10 -10z"/>
<path d="M1256 4476 c6 -15 4 -17 -6 -11 -9 6 -11 4 -5 -4 5 -9 10 -10 18 -2
8 8 7 14 -2 24 -10 10 -11 8 -5 -7z"/>
<path d="M3920 4480 c-9 -6 -10 -10 -3 -10 6 0 15 5 18 10 8 12 4 12 -15 0z"/>
<path d="M3882 4450 c13 -10 25 -16 28 -13 3 3 -1 8 -8 10 -6 3 -10 8 -8 12 3
4 -4 8 -15 8 -18 2 -18 0 3 -17z"/>
<path d="M1190 4456 c0 -2 8 -10 18 -17 15 -13 16 -12 3 4 -13 16 -21 21 -21
13z"/>
<path d="M3937 4433 c3 -7 6 -13 8 -13 2 0 5 6 8 13 3 8 -1 14 -8 14 -7 0 -11
-6 -8 -14z"/>
<path d="M1140 4400 c-8 -5 -10 -10 -5 -10 6 0 17 5 25 10 8 5 11 10 5 10 -5
0 -17 -5 -25 -10z"/>
<path d="M1106 4376 c10 -8 21 -12 24 -10 5 6 -21 24 -34 24 -6 0 -1 -6 10
-14z"/>
<path d="M3995 4371 c-3 -5 0 -13 6 -17 7 -4 9 -3 5 4 -3 5 0 13 6 15 9 4 10
6 1 6 -6 1 -14 -3 -18 -8z"/>
<path d="M1091 4363 c3 -20 -2 -34 -10 -28 -6 3 -13 -1 -18 -8 -4 -8 -15 -17
-23 -20 -12 -4 -11 -6 3 -6 10 -1 20 6 23 14 4 8 10 13 15 10 4 -3 13 3 19 14
7 14 7 22 0 26 -6 4 -10 3 -9 -2z"/>
<path d="M4042 4324 c11 -11 21 -14 26 -9 4 6 6 9 3 8 -2 -1 -13 3 -25 9 -20
10 -20 10 -4 -8z"/>
<path d="M4110 4321 c0 -6 4 -13 10 -16 6 -3 7 1 4 9 -7 18 -14 21 -14 7z"/>
<path d="M953 4275 c0 -8 4 -12 9 -9 5 3 6 10 3 15 -9 13 -12 11 -12 -6z"/>
<path d="M4175 4280 c-3 -5 -1 -10 4 -10 6 0 11 5 11 10 0 6 -2 10 -4 10 -3 0
-8 -4 -11 -10z"/>
<path d="M917 4223 c-3 -5 -1 -17 4 -28 6 -17 7 -16 6 8 -1 28 -3 32 -10 20z"/>
<path d="M4233 4205 c0 -8 4 -15 9 -15 4 0 8 4 8 9 0 6 -4 12 -8 15 -5 3 -9
-1 -9 -9z"/>
<path d="M4246 4161 c-3 -5 1 -11 9 -14 9 -4 12 -1 8 9 -6 16 -10 17 -17 5z"/>
<path d="M824 4115 c-4 -8 -11 -12 -17 -8 -6 3 -7 1 -3 -5 10 -16 14 -15 26 8
6 11 8 20 5 20 -3 0 -8 -7 -11 -15z"/>
<path d="M4315 4090 c-3 -5 -1 -10 4 -10 6 0 11 5 11 10 0 6 -2 10 -4 10 -3 0
-8 -4 -11 -10z"/>
<path d="M800 4070 c-9 -6 -10 -10 -3 -10 6 0 15 5 18 10 8 12 4 12 -15 0z"/>
<path d="M4330 4059 c0 -5 5 -7 10 -4 6 3 10 8 10 11 0 2 -4 4 -10 4 -5 0 -10
-5 -10 -11z"/>
<path d="M770 4046 c0 -2 7 -7 16 -10 8 -3 12 -2 9 4 -6 10 -25 14 -25 6z"/>
<path d="M4340 4040 c-9 -6 -10 -10 -3 -10 6 0 15 5 18 10 8 12 4 12 -15 0z"/>
<path d="M4393 4025 c0 -8 4 -12 9 -9 5 3 6 10 3 15 -9 13 -12 11 -12 -6z"/>
<path d="M765 4020 c3 -5 8 -10 11 -10 2 0 4 5 4 10 0 6 -5 10 -11 10 -5 0 -7
-4 -4 -10z"/>
<path d="M4358 4013 c7 -3 16 -2 19 1 4 3 -2 6 -13 5 -11 0 -14 -3 -6 -6z"/>
<path d="M690 3946 c0 -2 7 -9 15 -16 13 -11 14 -10 9 4 -5 14 -24 23 -24 12z"/>
<path d="M4410 3941 c0 -5 5 -13 10 -16 6 -3 10 -2 10 4 0 5 -4 13 -10 16 -5
3 -10 2 -10 -4z"/>
<path d="M4446 3925 c-9 -26 -7 -32 5 -12 6 10 9 21 6 23 -2 3 -7 -2 -11 -11z"/>
<path d="M670 3922 c0 -5 7 -9 15 -9 8 0 12 4 9 9 -3 4 -9 8 -15 8 -5 0 -9 -4
-9 -8z"/>
<path d="M4466 3902 c-3 -5 1 -9 9 -9 8 0 12 4 9 9 -3 4 -7 8 -9 8 -2 0 -6 -4
-9 -8z"/>
<path d="M4475 3851 c-9 -15 15 -25 28 -12 9 9 7 10 -7 5 -13 -5 -17 -4 -12 4
4 7 5 12 2 12 -3 0 -7 -4 -11 -9z"/>
<path d="M4507 3815 c-4 -8 -1 -17 5 -21 7 -4 8 -3 4 4 -4 7 -2 12 3 12 6 0
11 5 11 10 0 15 -17 12 -23 -5z"/>
<path d="M4530 3785 c-7 -9 -8 -15 -2 -15 5 0 12 7 16 15 3 8 4 15 2 15 -2 0
-9 -7 -16 -15z"/>
<path d="M580 3785 c0 -7 30 -13 34 -7 3 4 -4 9 -15 9 -10 1 -19 0 -19 -2z"/>
<path d="M4570 3781 c0 -6 4 -13 10 -16 6 -3 7 1 4 9 -7 18 -14 21 -14 7z"/>
<path d="M555 3770 c3 -5 8 -10 11 -10 2 0 4 5 4 10 0 6 -5 10 -11 10 -5 0 -7
-4 -4 -10z"/>
<path d="M4555 3760 c6 -10 3 -12 -11 -7 -18 7 -18 7 0 -8 11 -8 25 -15 30
-14 6 0 5 3 -2 6 -6 2 -10 9 -7 13 3 5 0 12 -6 16 -8 5 -9 3 -4 -6z"/>
<path d="M4590 3736 c0 -2 8 -10 18 -17 15 -13 16 -12 3 4 -13 16 -21 21 -21
13z"/>
<path d="M4580 3706 c0 -2 7 -7 16 -10 8 -3 12 -2 9 4 -6 10 -25 14 -25 6z"/>
<path d="M509 3683 c-13 -16 -12 -17 4 -4 9 7 17 15 17 17 0 8 -8 3 -21 -13z"/>
<path d="M501 3644 c0 -11 3 -14 6 -6 3 7 2 16 -1 19 -3 4 -6 -2 -5 -13z"/>
<path d="M4635 3650 c-3 -5 -3 -10 2 -10 4 0 1 -5 -7 -11 -12 -8 -12 -10 -1
-7 8 2 15 12 17 21 3 19 -2 22 -11 7z"/>
<path d="M455 3619 c-3 -4 2 -6 10 -5 21 3 28 13 10 13 -9 0 -18 -4 -20 -8z"/>
<path d="M4700 3580 c-9 -6 -10 -10 -3 -10 6 0 15 5 18 10 8 12 4 12 -15 0z"/>
<path d="M4685 3499 c-4 -6 -5 -12 -2 -15 2 -3 7 2 10 11 7 17 1 20 -8 4z"/>
<path d="M370 3460 c0 -5 5 -10 11 -10 5 0 7 5 4 10 -3 6 -8 10 -11 10 -2 0
-4 -4 -4 -10z"/>
<path d="M4728 3443 c6 -2 9 -10 6 -15 -4 -7 -2 -8 5 -4 13 9 5 26 -12 25 -9
0 -8 -2 1 -6z"/>
<path d="M410 3419 c0 -5 5 -7 10 -4 6 3 10 8 10 11 0 2 -4 4 -10 4 -5 0 -10
-5 -10 -11z"/>
<path d="M4728 3372 c4 -10 7 -12 10 -4 2 7 9 9 15 5 7 -3 8 -2 4 2 -14 16
-36 14 -29 -3z"/>
<path d="M4770 3359 c0 -5 5 -7 10 -4 6 3 10 8 10 11 0 2 -4 4 -10 4 -5 0 -10
-5 -10 -11z"/>
<path d="M346 3338 c3 -5 10 -6 15 -3 13 9 11 12 -6 12 -8 0 -12 -4 -9 -9z"/>
<path d="M4776 3327 c3 -10 9 -15 12 -12 3 3 0 11 -7 18 -10 9 -11 8 -5 -6z"/>
<path d="M336 3317 c3 -10 9 -15 12 -12 3 3 0 11 -7 18 -10 9 -11 8 -5 -6z"/>
<path d="M357 3295 c-4 -8 -3 -16 1 -19 4 -3 9 4 9 15 2 23 -3 25 -10 4z"/>
<path d="M325 3260 c-16 -7 -17 -9 -3 -9 9 -1 20 4 23 9 7 11 7 11 -20 0z"/>
<path d="M296 3218 c3 -4 11 -5 19 -1 21 7 19 12 -4 10 -11 0 -18 -5 -15 -9z"/>
<path d="M4814 3139 c-4 -7 -3 -9 4 -5 5 3 13 0 15 -6 4 -9 6 -10 6 -1 1 17
-16 25 -25 12z"/>
<path d="M300 3131 c0 -10 19 -25 25 -20 1 2 -3 10 -11 17 -8 7 -14 8 -14 3z"/>
<path d="M256 3107 c3 -10 9 -15 12 -12 3 3 0 11 -7 18 -10 9 -11 8 -5 -6z"/>
<path d="M4830 3101 c0 -5 8 -15 18 -22 15 -12 16 -12 5 2 -7 9 -10 19 -6 22
3 4 1 7 -5 7 -7 0 -12 -4 -12 -9z"/>
<path d="M4825 3040 c-7 -11 22 -26 32 -16 4 3 -2 6 -13 6 -16 0 -17 2 -4 10
9 6 10 10 3 10 -6 0 -15 -5 -18 -10z"/>
<path d="M277 3009 c7 -7 15 -10 18 -7 3 3 -2 9 -12 12 -14 6 -15 5 -6 -5z"/>
<path d="M4846 2997 c3 -10 9 -15 12 -12 3 3 0 11 -7 18 -10 9 -11 8 -5 -6z"/>
<path d="M250 2981 c0 -6 4 -13 10 -16 6 -3 7 1 4 9 -7 18 -14 21 -14 7z"/>
<path d="M276 2978 c3 -5 10 -6 15 -3 13 9 11 12 -6 12 -8 0 -12 -4 -9 -9z"/>
<path d="M246 2921 c-3 -4 6 -7 19 -7 14 0 22 2 19 5 -8 8 -34 10 -38 2z"/>
<path d="M215 2820 c-3 -5 -1 -10 4 -10 6 0 11 5 11 10 0 6 -2 10 -4 10 -3 0
-8 -4 -11 -10z"/>
<path d="M4875 2811 c-3 -5 -2 -12 3 -15 5 -3 9 1 9 9 0 17 -3 19 -12 6z"/>
<path d="M4860 2766 c0 -2 7 -7 16 -10 8 -3 12 -2 9 4 -6 10 -25 14 -25 6z"/>
<path d="M235 2740 c-3 -5 -1 -10 4 -10 6 0 11 5 11 10 0 6 -2 10 -4 10 -3 0
-8 -4 -11 -10z"/>
<path d="M4860 2739 c0 -5 9 -9 20 -9 11 0 20 2 20 4 0 2 -9 6 -20 9 -11 3
-20 1 -20 -4z"/>
<path d="M4909 2697 c6 -8 7 -18 3 -22 -4 -5 -1 -5 6 -1 10 6 10 11 1 22 -6 8
-14 14 -16 14 -3 0 0 -6 6 -13z"/>
<path d="M234 2646 c0 -17 4 -22 15 -18 9 3 11 7 4 9 -7 3 -9 11 -6 19 3 8 1
14 -4 14 -5 0 -9 -11 -9 -24z"/>
<path d="M4870 2666 c0 -2 7 -7 16 -10 8 -3 12 -2 9 4 -6 10 -25 14 -25 6z"/>
<path d="M195 2641 c-3 -5 -2 -12 3 -15 5 -3 9 1 9 9 0 17 -3 19 -12 6z"/>
<path d="M4890 2611 c0 -6 4 -13 10 -16 6 -3 7 1 4 9 -7 18 -14 21 -14 7z"/>
<path d="M4910 2616 c0 -2 8 -10 18 -17 15 -13 16 -12 3 4 -13 16 -21 21 -21
13z"/>
<path d="M238 2603 c7 -3 16 -2 19 1 4 3 -2 6 -13 5 -11 0 -14 -3 -6 -6z"/>
<path d="M246 2575 c-9 -26 -7 -32 5 -12 6 10 9 21 6 23 -2 3 -7 -2 -11 -11z"/>
<path d="M4875 2580 c3 -5 8 -10 11 -10 2 0 4 5 4 10 0 6 -5 10 -11 10 -5 0
-7 -4 -4 -10z"/>
<path d="M4894 2558 c-4 -5 -3 -12 0 -15 3 -4 6 -1 6 6 0 7 4 10 9 6 5 -3 12
-2 15 3 3 5 -2 9 -10 9 -8 0 -17 -4 -20 -9z"/>
<path d="M4910 2536 c0 -2 8 -10 18 -17 15 -13 16 -12 3 4 -13 16 -21 21 -21
13z"/>
<path d="M4874 2506 c0 -13 4 -22 8 -20 9 6 6 44 -3 44 -4 0 -6 -11 -5 -24z"/>
<path d="M235 2480 c-3 -5 -2 -10 4 -10 5 0 13 5 16 10 3 6 2 10 -4 10 -5 0
-13 -4 -16 -10z"/>
<path d="M4906 2478 c3 -5 10 -6 15 -3 13 9 11 12 -6 12 -8 0 -12 -4 -9 -9z"/>
<path d="M4870 2466 c0 -2 7 -7 16 -10 8 -3 12 -2 9 4 -6 10 -25 14 -25 6z"/>
<path d="M234 2438 c0 -10 1 -18 3 -18 1 0 7 8 12 18 7 13 6 19 -2 19 -7 0
-13 -9 -13 -19z"/>
<path d="M236 2373 c-6 -14 -5 -15 5 -6 7 7 10 15 7 18 -3 3 -9 -2 -12 -12z"/>
<path d="M4896 2367 c3 -10 9 -15 12 -12 3 3 0 11 -7 18 -10 9 -11 8 -5 -6z"/>
<path d="M255 2360 c-3 -5 -1 -10 4 -10 6 0 11 5 11 10 0 6 -2 10 -4 10 -3 0
-8 -4 -11 -10z"/>
<path d="M4870 2339 c-6 -11 -9 -25 -6 -32 2 -7 5 -4 5 6 1 9 5 17 9 17 5 0 9
7 9 15 0 20 -4 19 -17 -6z"/>
<path d="M228 2338 c5 -5 16 -8 23 -6 8 3 3 7 -10 11 -17 4 -21 3 -13 -5z"/>
<path d="M4873 2248 c-20 -26 -23 -37 -13 -43 6 -4 10 -3 9 2 -3 19 2 34 9 29
5 -3 9 1 9 9 0 18 -2 18 -14 3z"/>
<path d="M230 2236 c0 -2 8 -10 18 -17 15 -13 16 -12 3 4 -13 16 -21 21 -21
13z"/>
<path d="M274 2202 c3 -5 0 -13 -6 -15 -9 -4 -10 -6 -1 -6 17 -1 25 16 12 25
-7 4 -9 3 -5 -4z"/>
<path d="M4876 2193 c-6 -14 -5 -15 5 -6 7 7 10 15 7 18 -3 3 -9 -2 -12 -12z"/>
<path d="M4846 2173 c1 -14 8 -31 14 -37 10 -8 10 -6 3 9 -6 11 -8 25 -6 32 2
6 0 14 -5 17 -5 3 -8 -6 -6 -21z"/>
<path d="M273 2158 c3 -9 1 -19 -6 -22 -7 -2 -4 -5 6 -5 20 -1 21 7 6 29 -9
13 -10 13 -6 -2z"/>
<path d="M4870 2159 c0 -5 5 -7 10 -4 6 3 10 8 10 11 0 2 -4 4 -10 4 -5 0 -10
-5 -10 -11z"/>
<path d="M270 2116 c0 -2 8 -10 18 -17 15 -13 16 -12 3 4 -13 16 -21 21 -21
13z"/>
<path d="M4826 2078 c3 -5 10 -6 15 -3 13 9 11 12 -6 12 -8 0 -12 -4 -9 -9z"/>
<path d="M4845 2060 c-4 -6 -10 -8 -15 -5 -5 3 -12 0 -16 -7 -4 -7 -4 -10 1
-6 4 4 14 0 22 -10 8 -9 12 -11 8 -4 -4 7 -1 19 5 27 7 8 10 15 7 15 -3 0 -9
-5 -12 -10z"/>
<path d="M4815 2024 c2 -4 0 -15 -6 -25 -7 -14 -6 -17 5 -13 14 5 16 29 3 39
-4 3 -5 2 -2 -1z"/>
<path d="M310 1981 c0 -6 4 -12 8 -15 5 -3 9 1 9 9 0 8 -4 15 -9 15 -4 0 -8
-4 -8 -9z"/>
<path d="M310 1943 c0 -6 8 -17 18 -24 16 -13 16 -13 2 6 -8 11 -16 22 -17 24
-2 2 -3 0 -3 -6z"/>
<path d="M4829 1937 c6 -8 7 -18 3 -22 -4 -5 -1 -5 6 -1 10 6 10 11 1 22 -6 8
-14 14 -16 14 -3 0 0 -6 6 -13z"/>
<path d="M295 1900 c3 -5 8 -10 11 -10 2 0 4 5 4 10 0 6 -5 10 -11 10 -5 0 -7
-4 -4 -10z"/>
<path d="M4791 1872 c-8 -15 -6 -18 14 -18 13 0 21 4 19 8 -3 5 -10 5 -16 2
-7 -5 -9 -1 -5 9 9 23 0 22 -12 -1z"/>
<path d="M326 1862 c-3 -5 1 -9 9 -9 8 0 12 4 9 9 -3 4 -7 8 -9 8 -2 0 -6 -4
-9 -8z"/>
<path d="M4767 1839 c7 -7 15 -10 18 -7 3 3 -2 9 -12 12 -14 6 -15 5 -6 -5z"/>
<path d="M336 1803 c-6 -14 -5 -15 5 -6 7 7 10 15 7 18 -3 3 -9 -2 -12 -12z"/>
<path d="M4743 1775 c-3 -9 -3 -19 1 -22 3 -4 6 1 6 10 0 8 6 18 13 20 9 4 9
6 -1 6 -7 1 -15 -6 -19 -14z"/>
<path d="M370 1760 c0 -5 5 -10 10 -10 6 0 10 5 10 10 0 6 -4 10 -10 10 -5 0
-10 -4 -10 -10z"/>
<path d="M395 1740 c-8 -13 3 -30 18 -30 8 0 7 3 -2 9 -7 5 -10 14 -7 20 4 6
5 11 2 11 -3 0 -8 -4 -11 -10z"/>
<path d="M379 1688 c-5 -18 -6 -38 -1 -34 7 8 12 36 6 36 -2 0 -4 -1 -5 -2z"/>
<path d="M4674 1601 c4 -5 1 -12 -4 -14 -6 -3 -5 -4 2 -3 15 3 23 26 8 26 -6
0 -9 -4 -6 -9z"/>
<path d="M435 1561 c-3 -5 -2 -12 3 -15 5 -3 9 1 9 9 0 17 -3 19 -12 6z"/>
<path d="M4690 1559 c0 -5 5 -7 10 -4 6 3 10 8 10 11 0 2 -4 4 -10 4 -5 0 -10
-5 -10 -11z"/>
<path d="M490 1520 c0 -5 5 -10 11 -10 5 0 7 -5 3 -12 -4 -7 -3 -8 5 -4 9 6 9
11 0 22 -14 17 -19 18 -19 4z"/>
<path d="M4655 1520 c-3 -5 -1 -10 4 -10 6 0 11 5 11 10 0 6 -2 10 -4 10 -3 0
-8 -4 -11 -10z"/>
<path d="M455 1500 c3 -5 8 -10 11 -10 2 0 4 5 4 10 0 6 -5 10 -11 10 -5 0 -7
-4 -4 -10z"/>
<path d="M4628 1493 c6 -2 9 -10 6 -15 -4 -7 -2 -8 5 -4 13 9 5 26 -12 25 -9
0 -8 -2 1 -6z"/>
<path d="M507 1469 c7 -7 15 -10 18 -7 3 3 -2 9 -12 12 -14 6 -15 5 -6 -5z"/>
<path d="M533 1389 c-2 -23 3 -25 10 -4 4 8 3 16 -1 19 -4 3 -9 -4 -9 -15z"/>
<path d="M556 1382 c-2 -4 4 -9 15 -9 11 -1 17 2 14 8 -7 11 -22 12 -29 1z"/>
<path d="M4575 1380 c-3 -6 1 -7 9 -4 18 7 21 14 7 14 -6 0 -13 -4 -16 -10z"/>
<path d="M4547 1359 c7 -7 15 -10 18 -7 3 3 -2 9 -12 12 -14 6 -15 5 -6 -5z"/>
<path d="M4523 1335 c-3 -9 -3 -19 1 -22 3 -4 6 1 6 11 0 10 5 14 12 10 7 -4
8 -3 4 4 -10 16 -15 15 -23 -3z"/>
<path d="M588 1333 c7 -3 16 -2 19 1 4 3 -2 6 -13 5 -11 0 -14 -3 -6 -6z"/>
<path d="M601 1311 c-10 -6 -9 -10 3 -14 8 -3 18 -2 21 3 8 13 -9 20 -24 11z"/>
<path d="M4531 1284 c0 -11 3 -14 6 -6 3 7 2 16 -1 19 -3 4 -6 -2 -5 -13z"/>
<path d="M615 1269 c-4 -6 -5 -12 -2 -15 2 -3 7 2 10 11 7 17 1 20 -8 4z"/>
<path d="M4490 1250 c-9 -6 -10 -10 -3 -10 6 0 15 5 18 10 8 12 4 12 -15 0z"/>
<path d="M655 1240 c-3 -5 -1 -10 4 -10 6 0 11 5 11 10 0 6 -2 10 -4 10 -3 0
-8 -4 -11 -10z"/>
<path d="M4469 1206 c-9 -19 -9 -19 4 -4 8 10 16 15 19 12 4 -3 8 -1 12 4 3 5
-2 9 -10 9 -8 0 -20 -10 -25 -21z"/>
<path d="M654 1179 c-5 -8 -3 -9 6 -4 7 4 16 2 22 -6 8 -12 9 -12 6 0 -6 20
-24 25 -34 10z"/>
<path d="M4411 1166 c-18 -19 -20 -24 -7 -29 10 -4 13 -1 10 7 -3 8 5 21 18
30 12 9 18 16 12 16 -6 0 -21 -11 -33 -24z"/>
<path d="M4439 1168 c-5 -18 -6 -38 -1 -34 7 8 12 36 6 36 -2 0 -4 -1 -5 -2z"/>
<path d="M679 1093 c-13 -17 -13 -17 6 -3 11 8 22 16 24 17 2 2 0 3 -6 3 -6 0
-17 -8 -24 -17z"/>
<path d="M765 1090 c11 -5 16 -9 10 -9 -5 -1 -3 -6 5 -11 25 -16 31 -11 13 10
-10 11 -24 20 -33 19 -10 0 -9 -3 5 -9z"/>
<path d="M4346 1085 c-9 -26 -7 -32 5 -12 6 10 9 21 6 23 -2 3 -7 -2 -11 -11z"/>
<path d="M821 1033 c7 -12 15 -20 18 -17 3 2 -3 12 -13 22 -17 16 -18 16 -5
-5z"/>
<path d="M4335 1040 c-3 -5 -1 -10 4 -10 6 0 11 5 11 10 0 6 -2 10 -4 10 -3 0
-8 -4 -11 -10z"/>
<path d="M4279 1009 c-6 -13 -7 -19 -1 -15 6 3 12 0 15 -6 2 -7 4 -1 3 14 -1
34 -2 34 -17 7z"/>
<path d="M4310 1011 c0 -5 7 -12 16 -15 14 -5 15 -4 4 9 -14 17 -20 19 -20 6z"/>
<path d="M833 967 c0 -8 6 -14 14 -14 9 0 10 4 2 14 -6 7 -12 13 -14 13 -1 0
-2 -6 -2 -13z"/>
<path d="M877 949 c7 -7 15 -10 18 -7 3 3 -2 9 -12 12 -14 6 -15 5 -6 -5z"/>
<path d="M4230 945 c0 -5 5 -17 10 -25 5 -8 10 -10 10 -5 0 6 -5 17 -10 25 -5
8 -10 11 -10 5z"/>
<path d="M855 920 c3 -5 8 -10 11 -10 2 0 4 5 4 10 0 6 -5 10 -11 10 -5 0 -7
-4 -4 -10z"/>
<path d="M880 925 c0 -2 6 -8 13 -14 10 -8 14 -7 14 2 0 8 -6 14 -14 14 -7 0
-13 -1 -13 -2z"/>
<path d="M4206 878 c3 -5 10 -6 15 -3 13 9 11 12 -6 12 -8 0 -12 -4 -9 -9z"/>
<path d="M950 870 c0 -5 5 -10 11 -10 5 0 7 5 4 10 -3 6 -8 10 -11 10 -2 0 -4
-4 -4 -10z"/>
<path d="M960 846 c0 -2 7 -7 16 -10 8 -3 12 -2 9 4 -6 10 -25 14 -25 6z"/>
<path d="M4110 820 c0 -5 5 -10 10 -10 6 0 10 5 10 10 0 6 -4 10 -10 10 -5 0
-10 -4 -10 -10z"/>
<path d="M4031 762 c-20 -28 -20 -31 -3 -43 15 -12 15 -12 5 1 -9 11 -9 19 0
31 7 9 15 17 20 17 8 2 11 12 4 18 -3 3 -14 -8 -26 -24z"/>
<path d="M995 760 c-3 -5 -1 -10 4 -10 6 0 11 5 11 10 0 6 -2 10 -4 10 -3 0
-8 -4 -11 -10z"/>
<path d="M4050 739 c0 -5 5 -7 10 -4 6 3 10 8 10 11 0 2 -4 4 -10 4 -5 0 -10
-5 -10 -11z"/>
<path d="M3995 709 c-4 -6 -5 -12 -2 -15 2 -3 7 2 10 11 7 17 1 20 -8 4z"/>
<path d="M1116 702 c-2 -4 4 -8 14 -8 10 0 16 4 14 8 -3 4 -9 8 -14 8 -5 0
-11 -4 -14 -8z"/>
<path d="M1180 690 c-8 -5 -12 -11 -10 -14 3 -2 14 2 24 10 22 15 10 19 -14 4z"/>
<path d="M1219 653 c-11 -15 -11 -16 1 -5 21 18 32 14 18 -7 -7 -11 -16 -17
-22 -14 -5 4 -6 1 -1 -7 6 -10 12 -7 26 11 17 23 17 39 0 39 -5 0 -15 -8 -22
-17z"/>
<path d="M1257 633 c-4 -3 -7 -11 -7 -17 0 -6 5 -5 12 2 6 6 9 14 7 17 -3 3
-9 2 -12 -2z"/>
<path d="M1279 613 c-13 -16 -12 -17 4 -4 16 13 21 21 13 21 -2 0 -10 -8 -17
-17z"/>
<path d="M3876 607 c3 -10 9 -15 12 -12 3 3 0 11 -7 18 -10 9 -11 8 -5 -6z"/>
<path d="M1295 599 c-4 -6 -5 -12 -2 -15 2 -3 7 2 10 11 7 17 1 20 -8 4z"/>
<path d="M1316 593 c-6 -14 -5 -15 5 -6 7 7 10 15 7 18 -3 3 -9 -2 -12 -12z"/>
<path d="M3810 600 c0 -5 5 -10 11 -10 5 0 7 5 4 10 -3 6 -8 10 -11 10 -2 0
-4 -4 -4 -10z"/>
<path d="M1310 561 c0 -6 4 -13 10 -16 6 -3 7 1 4 9 -7 18 -14 21 -14 7z"/>
<path d="M3727 557 c2 -4 9 -4 15 -1 8 5 9 1 4 -11 -6 -18 -6 -18 12 -2 10 9
22 14 25 10 4 -3 7 -2 7 4 0 5 -15 9 -34 9 -19 -1 -32 -4 -29 -9z"/>
<path d="M1390 550 c-7 -5 -15 -16 -16 -24 -1 -9 2 -14 7 -10 5 3 7 9 4 14 -3
4 1 10 8 13 14 5 39 -18 29 -27 -3 -4 2 -4 13 0 11 5 14 9 7 12 -7 2 -9 9 -5
15 3 7 3 9 -2 5 -4 -4 -13 -4 -19 2 -7 5 -18 5 -26 0z"/>
<path d="M3712 531 c-11 -7 -11 -9 0 -14 9 -3 15 1 15 9 0 8 -1 14 -1 14 -1 0
-7 -4 -14 -9z"/>
<path d="M3694 499 c-3 -6 -2 -15 4 -21 6 -6 12 -6 17 3 6 8 4 10 -5 4 -10 -6
-12 -4 -7 8 7 19 2 23 -9 6z"/>
<path d="M1439 413 c-13 -16 -12 -17 4 -4 16 13 21 21 13 21 -2 0 -10 -8 -17
-17z"/>
<path d="M1660 353 c-11 -14 -11 -16 0 -6 10 10 16 9 25 -4 10 -13 13 -14 20
-2 5 8 5 11 0 7 -4 -4 -13 -1 -20 8 -10 14 -12 14 -25 -3z"/>
<path d="M3286 334 c-8 -21 -8 -24 5 -24 5 0 7 5 3 12 -5 8 -2 9 11 4 15 -5
16 -4 5 9 -15 19 -16 19 -24 -1z"/>
<path d="M3329 321 l5 -26 7 25 c7 23 10 23 13 1 3 -21 12 -19 12 2 0 17 -6
23 -21 23 -18 0 -21 -5 -16 -25z"/>
<path d="M3380 341 c0 -5 8 -8 18 -7 9 2 20 -4 24 -13 6 -13 7 -12 5 3 -2 19
-47 35 -47 17z"/>
<path d="M3508 343 c6 -2 9 -10 6 -15 -4 -7 -2 -8 5 -4 13 9 5 26 -12 25 -9 0
-8 -2 1 -6z"/>
<path d="M3134 293 c-1 -13 1 -21 5 -16 3 4 10 10 14 14 4 3 2 11 -5 17 -10 8
-13 5 -14 -15z"/>
<path d="M3389 303 c-13 -16 -12 -17 4 -4 16 13 21 21 13 21 -2 0 -10 -8 -17
-17z"/>
<path d="M1759 293 c-13 -16 -12 -17 4 -4 16 13 21 21 13 21 -2 0 -10 -8 -17
-17z"/>
<path d="M1870 300 c14 -9 7 -14 -13 -11 -5 1 -6 -3 -2 -9 5 -8 11 -8 21 1 15
12 10 29 -9 29 -7 0 -6 -4 3 -10z"/>
<path d="M3275 289 c-4 -6 -5 -12 -2 -15 2 -3 7 2 10 11 7 17 1 20 -8 4z"/>
<path d="M3010 283 c0 -15 18 -35 23 -27 3 5 -1 15 -9 22 -8 7 -14 9 -14 5z"/>
<path d="M3195 280 c3 -5 8 -10 11 -10 2 0 4 5 4 10 0 6 -5 10 -11 10 -5 0 -7
-4 -4 -10z"/>
<path d="M3239 273 c-13 -16 -12 -17 4 -4 16 13 21 21 13 21 -2 0 -10 -8 -17
-17z"/>
<path d="M2921 271 c-8 -5 -9 -11 -3 -15 5 -3 12 1 16 9 6 17 6 18 -13 6z"/>
<path d="M2946 258 c-13 -22 -20 -22 -40 -2 -14 14 -16 14 -16 0 0 -10 -6 -13
-16 -9 -10 4 -17 -1 -21 -16 -3 -11 -10 -21 -17 -21 -20 -1 39 -29 62 -30 12
0 22 -4 22 -9 0 -11 -41 -8 -59 4 -9 5 -12 2 -9 -11 3 -15 12 -19 48 -19 39 0
45 3 48 23 3 21 -8 31 -42 36 -23 3 -29 13 -11 19 8 4 15 2 15 -3 0 -14 57
-12 66 2 4 7 3 8 -4 4 -20 -12 -33 3 -21 25 9 17 13 18 27 7 9 -8 13 -8 9 -1
-4 6 -1 13 5 16 7 3 2 4 -11 4 -13 -1 -29 -9 -35 -19z"/>
<path d="M3163 273 c9 -2 14 -9 11 -15 -4 -7 -2 -8 5 -4 15 10 4 26 -17 25
-15 -1 -15 -2 1 -6z"/>
<path d="M1891 267 c2 -1 13 -9 24 -17 19 -14 19 -14 6 3 -7 9 -18 17 -24 17
-6 0 -8 -1 -6 -3z"/>
<path d="M2011 253 c-9 -16 -12 -16 -21 -3 -6 9 -10 10 -10 3 0 -6 -9 -10 -19
-8 -18 3 -20 -1 -17 -43 5 -64 5 -64 17 -57 6 4 8 13 5 21 -4 10 3 14 24 14
19 0 30 5 30 14 0 8 -9 12 -25 11 -14 -2 -27 1 -31 6 -4 8 34 14 59 10 5 -1 5
8 2 20 -5 16 -4 19 5 14 9 -5 11 -4 6 3 -10 16 -13 15 -25 -5z"/>
<path d="M2059 268 c-6 -18 -3 -46 3 -42 5 4 7 12 4 19 -3 8 0 16 7 19 9 3 9
5 0 5 -7 1 -13 0 -14 -1z"/>
<path d="M2244 249 c0 -13 3 -15 13 -7 7 6 13 12 13 13 0 2 -6 5 -13 8 -7 3
-13 -3 -13 -14z"/>
<path d="M2734 241 c0 -11 4 -17 8 -15 4 3 8 12 8 20 0 8 -4 14 -8 14 -4 0 -8
-9 -8 -19z"/>
<path d="M2997 245 c-4 -8 -3 -16 1 -19 4 -3 9 4 9 15 2 23 -3 25 -10 4z"/>
<path d="M1295 242 c-11 -11 -4 -22 15 -22 17 0 20 -7 20 -41 0 -25 4 -38 10
-34 6 4 9 20 6 36 -4 25 0 32 21 40 14 5 24 11 22 14 -7 6 -88 12 -94 7z"/>
<path d="M1652 240 c-4 -3 -7 -25 -7 -50 l0 -45 37 0 c21 0 39 4 40 10 2 5 -9
9 -24 10 -28 0 -51 14 -27 16 8 1 19 2 24 4 6 1 17 3 25 4 13 1 13 3 1 10 -8
5 -23 8 -33 6 -10 -2 -18 0 -18 6 0 9 21 13 48 10 6 -1 12 4 12 12 0 9 -12 13
-36 13 -20 -1 -39 -3 -42 -6z"/>
<path d="M2375 240 c-3 -5 -1 -10 4 -10 6 0 11 5 11 10 0 6 -2 10 -4 10 -3 0
-8 -4 -11 -10z"/>
<path d="M2393 216 c-20 -37 -26 -76 -12 -76 5 0 13 8 17 18 9 23 45 22 54 -1
9 -22 30 -18 34 6 1 9 -2 15 -7 12 -9 -6 -24 40 -21 65 1 10 -1 11 -4 3 -3 -7
-10 -13 -15 -13 -6 0 -8 4 -5 8 3 5 -2 9 -10 9 -8 0 -22 -14 -31 -31z"/>
<path d="M2475 232 c-8 -22 12 -39 28 -23 10 10 9 11 -5 6 -10 -4 -18 -3 -18
3 0 18 29 21 39 4 6 -10 11 -12 11 -4 0 6 0 15 0 19 0 14 -49 10 -55 -5z"/>
<path d="M2555 229 c2 -11 -2 -19 -8 -19 -8 0 -8 -3 -2 -8 6 -4 11 -18 10 -32
0 -20 5 -25 29 -27 16 -1 35 -4 42 -7 9 -4 13 2 12 19 -1 14 -6 21 -13 16 -34
-24 -59 26 -30 59 12 13 10 15 -15 16 -23 1 -28 -2 -25 -17z"/>
<path d="M2619 233 c-8 -9 -8 -13 0 -13 6 0 11 5 11 11 0 8 4 8 14 0 8 -7 23
-13 34 -16 16 -3 19 1 14 18 -5 18 -7 19 -10 5 -2 -10 -9 -15 -18 -11 -7 3
-12 8 -9 12 8 14 -25 8 -36 -6z"/>
<path d="M3136 242 c-3 -5 1 -9 9 -9 8 0 12 4 9 9 -3 4 -7 8 -9 8 -2 0 -6 -4
-9 -8z"/>
<path d="M3229 247 c0 -1 -2 -10 -4 -19 -2 -9 -10 -32 -19 -49 -17 -35 -12
-54 7 -28 20 26 46 30 57 9 15 -28 34 -26 25 3 -4 12 -7 30 -8 39 -1 9 -5 14
-9 12 -4 -3 -8 1 -8 9 0 11 -37 32 -41 24z m26 -36 c3 -5 1 -12 -5 -16 -5 -3
-10 1 -10 9 0 18 6 21 15 7z"/>
<path d="M3414 239 c-12 -4 -25 -13 -30 -20 -9 -16 23 -39 55 -39 18 0 22 -3
14 -11 -8 -8 -20 -9 -42 -1 -32 11 -40 5 -19 -16 25 -25 98 -11 98 19 0 13
-12 21 -42 29 -30 9 -38 14 -27 20 8 6 18 5 23 0 13 -13 46 -13 46 0 0 6 -5
10 -11 10 -5 0 -8 3 -6 8 7 10 -33 11 -59 1z"/>
<path d="M3612 242 c-12 -2 -30 -14 -38 -28 -15 -22 -15 -26 0 -49 20 -31 58
-33 86 -5 25 25 25 29 -3 60 -14 16 -30 24 -45 22z m38 -51 c0 -16 -27 -31
-44 -25 -19 7 -22 40 -3 47 14 5 47 -10 47 -22z"/>
<path d="M1467 233 c-9 -18 -1 -87 11 -90 7 -3 12 4 12 16 0 16 6 21 25 21 19
0 25 -5 25 -21 0 -12 5 -19 13 -17 7 3 12 22 12 48 0 26 -5 45 -12 47 -8 3
-13 -4 -13 -16 0 -16 -6 -21 -25 -21 -15 0 -25 6 -25 14 0 17 -17 30 -23 19z"/>
<path d="M2099 213 c-3 -59 6 -88 19 -66 7 10 8 52 3 86 -3 20 -21 3 -22 -20z"/>
<path d="M3749 228 c-4 -44 -2 -73 7 -73 5 0 8 11 8 24 -1 23 0 23 26 -10 16
-18 31 -31 34 -28 12 12 11 92 -2 97 -9 3 -11 -4 -8 -22 7 -37 -7 -40 -28 -5
-18 30 -35 38 -37 17z"/>
<path d="M2353 205 c0 -8 4 -12 9 -9 4 3 8 9 8 15 0 5 -4 9 -8 9 -5 0 -9 -7
-9 -15z"/>
<path d="M2753 205 c0 -8 4 -12 9 -9 5 3 6 10 3 15 -9 13 -12 11 -12 -6z"/>
<path d="M2790 196 c7 -7 13 -7 20 0 6 6 3 10 -10 10 -13 0 -16 -4 -10 -10z"/>
<path d="M2985 200 c-3 -6 1 -7 9 -4 18 7 21 14 7 14 -6 0 -13 -4 -16 -10z"/>
<path d="M2513 185 c0 -8 4 -12 9 -9 5 3 6 10 3 15 -9 13 -12 11 -12 -6z"/>
</g>
</svg>
